<?xml version="1.0" encoding="UTF-8"?>
<!DOCTYPE svg PUBLIC "-//W3C//DTD SVG 1.1//EN" "http://www.w3.org/Graphics/SVG/1.1/DTD/svg11.dtd">
<!-- Creator: CorelDRAW X7 -->
<svg xmlns="http://www.w3.org/2000/svg" xml:space="preserve" width="121.92mm" height="121.92mm" version="1.1" style="shape-rendering:geometricPrecision; text-rendering:geometricPrecision; image-rendering:optimizeQuality; fill-rule:evenodd; clip-rule:evenodd"
viewBox="0 0 10482 10482"
 xmlns:xlink="http://www.w3.org/1999/xlink">
 <defs>
  <style type="text/css">
   <![CDATA[
    .fil1 {fill:#FEFEFE;fill-rule:nonzero}
    .fil0 {fill:url(#id0)}
   ]]>
  </style>
  <linearGradient id="id0" gradientUnits="userSpaceOnUse" x1="2702.22" y1="-1084.53" x2="7779.62" y2="11566.4">
   <stop offset="0" style="stop-opacity:1; stop-color:#00CCFF"/>
   <stop offset="1" style="stop-opacity:1; stop-color:#003399"/>
  </linearGradient>
 </defs>
 <g id="Layer_x0020_1">
  <metadata id="CorelCorpID_0Corel-Layer"/>
  <path class="fil0" d="M5220 0l42 0c2878,11 5208,2342 5220,5220l0 42c-12,2878 -2342,5208 -5220,5220l-42 0c-2878,-12 -5209,-2342 -5220,-5220l0 -42c11,-2878 2342,-5209 5220,-5220z"/>
  <g id="_388563424">
   <g>
    <path class="fil1" d="M7717 3800l-4952 0 0 -320 4952 0 198 160 -198 160zm0 -320c110,0 198,72 198,160 0,88 -88,160 -198,160l0 -320zm-198 4156l0 -3996 396 0 0 3996 -198 160 -198 -160zm396 0c0,89 -88,160 -198,160 -109,0 -198,-71 -198,-160l396 0zm-5150 -159l4952 0 0 319 -4952 0 -198 -160 198 -159zm0 319c-110,0 -198,-71 -198,-160 0,-88 88,-159 198,-159l0 319zm198 -4156l0 3996 -396 0 0 -3996 198 -160 198 160zm-396 0c0,-88 88,-160 198,-160 109,0 198,72 198,160l-396 0z"/>
   </g>
   <g>
    <path class="fil1" d="M3703 4825c-34,-102 23,-212 127,-245 104,-33 216,23 250,125l-377 120zm2701 -124l373 129 -134 353 -134 310 -134 270 -135 233 -136 197 -138 163 -142 132 -147 102 -151 70 -155 39 -154 5 -148 -24 -139 -50 -128 -70 -118 -86 -109 -98 -102 -108 -95 -117 -89 -122 -82 -126 -77 -128 -71 -128 -65 -126 -58 -122 -53 -116 -46 -107 -40 -97 -33 -84 -26 -70 -19 -53 -12 -33 -4 -14 377 -120 3 9 10 30 18 49 24 65 31 79 37 90 44 101 49 108 54 114 60 116 65 117 69 116 73 112 77 106 79 97 81 87 82 73 81 59 79 43 75 28 72 12 71 -3 77 -18 85 -40 95 -66 104 -97 111 -132 117 -169 121 -209 125 -250 126 -293 129 -338zm0 0c36,-102 149,-155 252,-120 103,36 158,147 121,249l-373 -129z"/>
   </g>
   <g>
    <polygon class="fil1" points="6404,3700 6275,3362 6149,3069 6024,2819 5903,2610 5786,2441 5675,2309 5571,2212 5476,2146 5391,2106 5314,2087 5243,2085 5171,2097 5096,2124 5017,2167 4936,2226 4854,2300 4773,2387 4694,2484 4617,2590 4544,2702 4475,2817 4410,2934 4350,3051 4296,3164 4247,3272 4203,3373 4166,3464 4135,3543 4111,3608 4093,3657 4083,3687 4080,3695 3703,3575 3707,3562 3719,3528 3738,3475 3764,3406 3797,3321 3837,3224 3883,3117 3936,3002 3994,2880 4059,2754 4130,2626 4207,2498 4289,2371 4378,2249 4473,2133 4575,2024 4684,1926 4802,1840 4930,1771 5069,1721 5217,1696 5371,1702 5526,1740 5677,1810 5824,1912 5966,2044 6104,2208 6240,2405 6375,2637 6509,2908 6643,3218 6777,3571 "/>
   </g>
  </g>
 </g>
</svg>
